# xmcd CD database file
#
# Track frame offsets:
#	150
#	13735
#	30035
#	41797
#	53190
#	68642
#	82027
#	92775
#	104250
#	117150
#	126602
#	139970
#	151575
#	167507
#	180375
#	194627
#	208807
#	227510
#	239287
#	257830
#	273092
#	289375
#
# Disc length: 4037 seconds
#
# Revision: 1
# Processed by: cddbd v1.5.2PL0 Copyright (c) Steve Scherf et al.
# Submitted via: CDex 1.51
#
DISCID=350fc316
DTITLE=Various Artist - 50 Years of Easy-Listening Country
DYEAR=1995
DGENRE=Country
TTITLE0=Southern Nights
TTITLE1=Looking For Love
TTITLE2=Don't It Make My Brown Eyes Blue
TTITLE3=A White Sport Coat (And A Pink Carnation)
TTITLE4=Feels So Right
TTITLE5=Here You Come Again
TTITLE6=He'll Have To Go
TTITLE7=Young Love
TTITLE8=I Fall To Pieces
TTITLE9=Country Sunshine
TTITLE10=Anytime
TTITLE11=Crazy Arms
TTITLE12=The Closer You Get
TTITLE13=Somebody's Knockin'
TTITLE14=I.O.U.
TTITLE15=I Love A Rainy Night
TTITLE16=The Sweetest Thing (I've Ever Known)
TTITLE17=Elvira
TTITLE18=I Believe In You
TTITLE19=Nobody
TTITLE20=I Wouldn't Have Missed It For The World
TTITLE21=Swingin'
EXTD=YEAR: 1995
EXTT0=
EXTT1=
EXTT2=
EXTT3=
EXTT4=
EXTT5=
EXTT6=
EXTT7=
EXTT8=
EXTT9=
EXTT10=
EXTT11=
EXTT12=
EXTT13=
EXTT14=
EXTT15=
EXTT16=
EXTT17=
EXTT18=
EXTT19=
EXTT20=
EXTT21=
PLAYORDER=
